<svg xmlns="http://www.w3.org/2000/svg" viewBox="0 0 64 64">
  <rect width="64" height="64" rx="12" fill="#050505" />
  <path
    d="M13 14h20c7.2 0 12 4.8 12 12v4.5c0 6.9-4.7 11.5-12 11.5H29.4L41 54H31.2L19.6 42.1V33h13.2c2.2 0 3.7-1.5 3.7-3.8v-2.1c0-2.4-1.5-4-3.7-4H22.1V43H13V14Z"
    fill="#ffffff"
  />
  <path
    d="M10 11.5c4.8 1.6 8.5 4.4 11 8.4"
    fill="none"
    stroke="#d6ff1f"
    stroke-linecap="round"
    stroke-width="3"
  />
  <path
    d="M25 41c1.1 4.3 3.4 8.1 6.8 11.5"
    fill="none"
    stroke="#d6ff1f"
    stroke-linecap="round"
    stroke-width="3"
  />
</svg>
